<svg width="56" height="51" viewBox="0 0 56 51" fill="none" xmlns="http://www.w3.org/2000/svg">
<g clip-path="url(#clip0_77_143)">
<path d="M8.50274 51H47.4754C53.1366 51 56 48.1823 56 42.6553V8.40967C56 2.88268 53.1366 0.0650024 47.4754 0.0650024H8.50274C2.86339 0.0650024 0 2.86101 0 8.40967V42.6553C0 48.204 2.86339 51 8.50274 51ZM8.19672 47.1636C5.39891 47.1636 3.86885 45.6897 3.86885 42.8287V16.9711C3.86885 14.0883 5.39891 12.6362 8.19672 12.6362H47.7596C50.5355 12.6362 52.1093 14.0883 52.1093 16.9711V42.8287C52.1093 45.6897 50.5355 47.1636 47.7596 47.1636H8.19672ZM22.4262 22.6065H24.0874C25.0273 22.6065 25.2897 22.3463 25.2897 21.436V19.8105C25.2897 18.9001 25.0273 18.6617 24.0874 18.6617H22.4262C21.5082 18.6617 21.2459 18.9001 21.2459 19.8105V21.436C21.2459 22.3463 21.5082 22.6065 22.4262 22.6065ZM31.9344 22.6065H33.5956C34.5137 22.6065 34.776 22.3463 34.776 21.436V19.8105C34.776 18.9001 34.5137 18.6617 33.5956 18.6617H31.9344C30.9945 18.6617 30.7323 18.9001 30.7323 19.8105V21.436C30.7323 22.3463 30.9945 22.6065 31.9344 22.6065ZM41.4207 22.6065H43.082C44 22.6065 44.2842 22.3463 44.2842 21.436V19.8105C44.2842 18.9001 44 18.6617 43.082 18.6617H41.4207C40.5028 18.6617 40.2186 18.9001 40.2186 19.8105V21.436C40.2186 22.3463 40.5028 22.6065 41.4207 22.6065ZM12.9399 31.8615H14.6011C15.5191 31.8615 15.8033 31.623 15.8033 30.7127V29.0655C15.8033 28.1768 15.5191 27.9167 14.6011 27.9167H12.9399C12.0218 27.9167 11.7378 28.1768 11.7378 29.0655V30.7127C11.7378 31.623 12.0218 31.8615 12.9399 31.8615ZM22.4262 31.8615H24.0874C25.0273 31.8615 25.2897 31.623 25.2897 30.7127V29.0655C25.2897 28.1768 25.0273 27.9167 24.0874 27.9167H22.4262C21.5082 27.9167 21.2459 28.1768 21.2459 29.0655V30.7127C21.2459 31.623 21.5082 31.8615 22.4262 31.8615ZM31.9344 31.8615H33.5956C34.5137 31.8615 34.776 31.623 34.776 30.7127V29.0655C34.776 28.1768 34.5137 27.9167 33.5956 27.9167H31.9344C30.9945 27.9167 30.7323 28.1768 30.7323 29.0655V30.7127C30.7323 31.623 30.9945 31.8615 31.9344 31.8615ZM41.4207 31.8615H43.082C44 31.8615 44.2842 31.623 44.2842 30.7127V29.0655C44.2842 28.1768 44 27.9167 43.082 27.9167H41.4207C40.5028 27.9167 40.2186 28.1768 40.2186 29.0655V30.7127C40.2186 31.623 40.5028 31.8615 41.4207 31.8615ZM12.9399 41.1381H14.6011C15.5191 41.1381 15.8033 40.8996 15.8033 39.9893V38.3421C15.8033 37.4318 15.5191 37.1933 14.6011 37.1933H12.9399C12.0218 37.1933 11.7378 37.4318 11.7378 38.3421V39.9893C11.7378 40.8996 12.0218 41.1381 12.9399 41.1381ZM22.4262 41.1381H24.0874C25.0273 41.1381 25.2897 40.8996 25.2897 39.9893V38.3421C25.2897 37.4318 25.0273 37.1933 24.0874 37.1933H22.4262C21.5082 37.1933 21.2459 37.4318 21.2459 38.3421V39.9893C21.2459 40.8996 21.5082 41.1381 22.4262 41.1381ZM31.9344 41.1381H33.5956C34.5137 41.1381 34.776 40.8996 34.776 39.9893V38.3421C34.776 37.4318 34.5137 37.1933 33.5956 37.1933H31.9344C30.9945 37.1933 30.7323 37.4318 30.7323 38.3421V39.9893C30.7323 40.8996 30.9945 41.1381 31.9344 41.1381Z" fill="#808080"/>
</g>
<defs>
<clipPath id="clip0_77_143">
<rect width="56" height="51" fill="white"/>
</clipPath>
</defs>
</svg>
