<svg width="636" height="637" viewBox="0 0 636 637" fill="none" xmlns="http://www.w3.org/2000/svg">
<g clip-path="url(#clip0_77_152)">
<path d="M317.871 635.986C491.943 635.986 635.986 491.943 635.986 318.115C635.986 144.043 491.699 0 317.627 0C143.799 0 0 144.043 0 318.115C0 491.943 144.043 635.986 317.871 635.986ZM317.871 590.576C166.992 590.576 45.6543 468.994 45.6543 318.115C45.6543 166.992 166.748 45.6543 317.627 45.6543C468.75 45.6543 590.332 166.992 590.332 318.115C590.332 468.994 468.994 590.576 317.871 590.576Z" fill="#808080"/>
<path d="M148.926 350.098H317.627C328.369 350.098 336.67 341.797 336.67 331.055V113.281C336.67 102.783 328.369 94.4824 317.627 94.4824C307.373 94.4824 298.828 102.783 298.828 113.281V312.256H148.926C138.184 312.256 130.127 320.557 130.127 331.055C130.127 341.797 138.184 350.098 148.926 350.098Z" fill="#808080"/>
</g>
<defs>
<clipPath id="clip0_77_152">
<rect width="635.986" height="636.475" fill="white"/>
</clipPath>
</defs>
</svg>
